<?xml version="1.0" encoding="UTF-8" standalone="no"?>
<!DOCTYPE svg PUBLIC "-//W3C//DTD SVG 1.0//EN" "http://www.w3.org/TR/2001/REC-SVG-20010904/DTD/svg10.dtd">
<!-- Created with Inkscape (http://www.inkscape.org/) -->
<svg
   xmlns:svg="http://www.w3.org/2000/svg"
   xmlns="http://www.w3.org/2000/svg"
   version="1.0"
   width="803"
   height="800"
   id="svg2">
  <defs
     id="defs4" />
  <g
     id="layer1">
    <path
       d="M 355.08535,520.03865 L 355.08535,536.17206 L 364.69675,536.17206 L 364.69675,767.1888 L 355.08535,767.1888 L 355.08535,786.06833 L 412.23883,786.06833 L 412.23883,767.1888 L 401.9409,767.1888 L 401.9409,520.03865 L 355.08535,520.03865 z M 408.29129,520.03865 L 408.29129,536.17206 L 421.50696,536.17206 L 421.50696,705.40126 C 421.47582,706.80343 421.33532,708.26057 421.33532,709.69206 C 421.33532,711.10571 421.47582,712.42587 421.50696,713.81123 L 421.50696,767.1888 L 415.3282,767.1888 L 415.3282,786.06833 L 451.02767,786.06833 L 451.02767,784.69527 C 456.66484,787.9119 462.46567,789.6726 467.67598,789.6726 C 479.04389,789.67266 491.90932,782.08663 500.11443,766.67391 C 508.31938,751.26135 512.47188,732.21464 512.47194,709.69206 C 512.47183,686.97886 508.31943,667.90359 500.11443,652.53859 C 491.90932,637.17387 479.04384,629.54012 467.67598,629.5399 C 464.2563,629.53995 460.60337,630.22752 456.86316,631.59948 L 457.37806,520.03865 L 408.29129,520.03865 z M 23.320595,581.13966 L 23.320595,597.27307 L 34.476678,597.27307 L 34.476678,767.1888 L 22.805698,767.1888 L 22.805698,786.06833 L 56.788845,786.06833 L 56.788845,767.1888 L 48.207242,767.1888 L 48.207242,599.33265 L 74.981843,786.06833 L 101.58481,786.06833 L 128.53104,598.98939 L 128.53104,767.1888 L 114.80048,767.1888 L 114.80048,786.06833 L 175.72986,786.06833 L 175.72986,767.1888 L 162.51419,767.1888 L 162.51419,597.27307 L 175.72986,597.27307 L 175.72986,581.13966 L 116.86006,581.13966 L 98.667066,701.28209 L 80.6457,581.13966 L 23.320595,581.13966 z M 740.22767,629.88316 C 728.85965,629.88327 714.2779,637.4409 706.07289,652.71022 C 697.86773,667.97976 693.88696,687.13115 693.88702,710.03533 C 693.88696,732.6533 697.86778,751.65234 706.07289,767.01717 C 714.27784,782.38206 728.8597,790.01581 740.22767,790.01586 C 751.59554,790.01581 764.46102,782.42989 772.66613,767.01717 C 780.87108,751.6045 785.02358,732.5579 785.02364,710.03533 C 785.02347,687.32201 780.87113,668.24685 772.66613,652.88185 C 764.46097,637.51702 751.59554,629.88338 740.22767,629.88316 z M 564.99135,630.05479 C 553.62337,630.05496 539.04157,637.61253 530.83657,652.88185 C 522.63146,668.15145 518.65064,687.30279 518.65069,710.20696 C 518.65069,732.82499 522.63146,751.82397 530.83657,767.1888 C 539.04157,782.55374 553.62337,790.18744 564.99135,790.1875 C 576.35927,790.1875 589.2247,782.60153 597.42981,767.1888 C 605.63481,751.77619 609.78726,732.72953 609.78731,710.20696 C 609.7872,687.4937 605.63481,668.41848 597.42981,653.05349 C 589.2247,637.68871 576.35921,630.05501 564.99135,630.05479 z M 220.52582,630.74132 C 202.68405,631.593 186.08682,643.21977 186.02778,659.40387 C 186.00169,666.56151 187.52238,672.32038 190.31858,676.56708 C 193.11467,680.81405 196.73098,682.91757 201.1314,682.91746 C 211.60519,682.98057 220.55361,679.07016 217.74522,666.22247 C 215.63022,663.12519 212.39876,657.67371 212.93293,654.77041 C 214.76635,644.80598 228.69112,646.20973 230.51393,656.63568 C 231.65994,663.19049 231.85348,672.28435 231.85354,683.43236 L 231.85354,701.96862 C 230.11162,701.58702 228.12651,701.2822 226.01805,701.28209 L 220.52582,701.11046 C 196.0952,701.16549 176.93128,712.85125 176.93128,744.36174 C 176.93128,765.39845 188.7606,787.95628 210.05627,787.95628 C 225.02983,787.95628 229.69641,777.36392 234.42802,768.21859 C 236.35315,775.18532 236.848,777.41675 240.60677,781.091 C 244.36549,784.76519 251.10308,786.23996 256.05366,786.23996 L 270.47075,786.23996 L 270.47075,767.1888 L 260.34446,767.1888 L 260.34446,694.24518 C 260.34435,674.29956 256.80813,658.77501 249.70327,647.56126 C 242.59825,636.34789 232.81045,630.74148 220.52582,630.74132 z M 338.26541,631.25622 C 328.17855,632.20758 321.26434,638.78309 319.72915,648.76269 L 318.87099,648.76269 L 318.87099,632.8009 L 277.85093,632.8009 L 277.85093,651.68043 L 287.29069,651.68043 L 287.29069,767.1888 L 277.85093,767.1888 L 277.85093,786.06833 L 336.54909,786.06833 L 336.54909,767.1888 L 323.67669,767.1888 L 323.67669,672.27628 C 323.27032,660.07749 326.36656,651.25918 336.37746,644.47188 C 331.15803,656.5913 334.45441,672.4104 347.53354,676.39545 C 351.56725,676.39556 354.76137,674.80611 357.14494,671.41812 C 359.52851,668.03029 360.74916,663.28056 360.74921,657.17266 C 360.74916,649.06086 359.15218,642.65484 355.94351,638.1215 C 352.73473,633.58854 348.32008,631.25638 342.72784,631.25622 C 341.16141,631.15895 339.70641,631.12028 338.26541,631.25622 z M 672.08975,631.25622 C 662.00289,632.1755 655.08867,638.61146 653.55349,648.59105 L 652.69533,648.59105 L 652.69533,632.8009 L 611.67527,632.8009 L 611.67527,651.68043 L 621.11503,651.68043 L 621.11503,767.1888 L 611.67527,767.1888 L 611.67527,786.06833 L 670.37343,786.06833 L 670.37343,767.1888 L 657.50102,767.1888 L 657.50102,672.10464 C 657.09465,659.90586 660.1909,651.08754 670.2018,644.30025 C 664.98237,656.41967 668.27875,672.4104 681.35788,676.39545 C 685.39159,676.39556 688.5857,674.80611 690.96927,671.41812 C 693.35285,668.03029 694.57349,663.28056 694.57355,657.17266 C 694.57349,649.06086 692.97652,642.65484 689.76785,638.1215 C 686.55907,633.58854 682.14442,631.25638 676.55218,631.25622 C 674.98574,631.15895 673.53074,631.1249 672.08975,631.25622 z M 467.67598,644.98678 C 480.27173,644.17646 478.69838,665.37799 478.83206,677.08197 L 479.00369,709.52043 L 479.00369,742.13052 C 479.38161,754.45304 479.46031,770.09985 467.67598,770.62144 C 459.87389,770.96679 457.306,764.09613 456.34826,756.03272 L 456.69153,656.14286 C 458.08232,649.91858 461.08772,645.41062 467.67598,644.98678 z M 740.22767,645.33004 C 752.82338,644.51961 751.25008,665.72125 751.38376,677.42524 L 751.38376,710.03533 L 751.38376,742.47379 C 751.76168,754.79625 752.01201,770.44311 740.22767,770.96471 C 726.84746,771.55688 728.34261,751.48642 728.21343,739.21278 L 728.21343,710.03533 L 728.21343,680.68625 C 728.19053,666.48006 726.0479,646.2423 740.22767,645.33004 z M 564.99135,645.50168 C 577.58711,644.6913 576.01375,665.89288 576.14743,677.59687 L 576.14743,710.20696 L 576.14743,742.64542 C 576.52541,754.96794 576.77569,770.61474 564.99135,771.13634 C 551.61119,771.72857 553.10628,751.65805 552.9771,739.38441 L 552.9771,710.20696 L 552.9771,680.85788 C 552.95426,666.65174 550.81157,646.41394 564.99135,645.50168 z M 225.33152,713.46797 L 228.07763,713.98287 L 231.85354,715.01266 L 231.85354,737.83972 C 231.85348,746.42885 230.75866,753.59615 228.4209,759.46536 C 226.08308,765.33457 223.21954,768.21859 220.01093,768.21859 C 217.16887,768.21859 215.27542,766.08657 214.17544,761.69658 C 213.07529,757.30664 212.45923,749.52053 212.45912,738.35462 C 212.45906,729.96447 213.3717,726.92678 215.20523,721.53468 C 217.03875,716.14274 220.38105,713.46808 225.33152,713.46797 z"
       id="text5556"
       style="font-size:52.31846619px;font-style:normal;font-variant:normal;font-weight:normal;font-stretch:normal;text-align:start;line-height:100%;writing-mode:lr-tb;text-anchor:start;opacity:1;fill:#000000;fill-opacity:1;stroke:none;stroke-width:1px;stroke-linecap:butt;stroke-linejoin:miter;stroke-opacity:1;font-family:Modern735 BT;-inkscape-font-specification:Modern735 BT" />
    <path
       d="M 18.000001,544.75366 L 18.000001,17.500001 L 784.16548,17.500001 L 784.16548,544.75366 L 401.08274,308.58796 L 18.000001,544.75366 z"
       id="path5595"
       style="fill:#c60000;fill-opacity:1;fill-rule:evenodd;stroke:none;stroke-width:1px;stroke-linecap:butt;stroke-linejoin:miter;stroke-opacity:1" />
  </g>
</svg>
